<svg width="619" height="64" viewBox="0 0 619 64" fill="none" xmlns="http://www.w3.org/2000/svg">
<rect width="619" height="64" fill="white"/>
<path d="M23 29.1436H53C53 37.4311 46.2875 44.1436 38 44.1436C29.7125 44.1436 23 37.4311 23 29.1436Z" fill="url(#paint0_linear_719:8)"/>
<path d="M53 29.1439C53 31.2157 51.6031 33.5032 47.9281 33.5032C44.7219 33.5032 41.1125 31.2814 38 29.1439C41.3 26.8657 44.9281 23.8657 47.9281 23.8657C50.9938 23.8564 53 26.6595 53 29.1439Z" fill="url(#paint1_linear_719:8)"/>
<path d="M23 29.1439C23 31.2158 24.3969 33.5033 28.0719 33.5033C31.2781 33.5033 34.8875 31.2814 38 29.1439C34.7 26.8658 31.0719 23.8564 28.0719 23.8564C25.0062 23.8564 23 26.6596 23 29.1439Z" fill="url(#paint2_linear_719:8)"/>
<path d="M69.5771 37.0205H64.6201L63.583 40H61.2715L66.1055 27.2031H68.1006L72.9434 40H70.623L69.5771 37.0205ZM65.2441 35.2275H68.9531L67.0986 29.9189L65.2441 35.2275ZM75.7559 30.4902L75.8174 31.5889C76.5205 30.7393 77.4434 30.3145 78.5859 30.3145C80.5664 30.3145 81.5742 31.4482 81.6094 33.7158V40H79.4736V33.8389C79.4736 33.2354 79.3418 32.79 79.0781 32.5029C78.8203 32.21 78.3955 32.0635 77.8037 32.0635C76.9424 32.0635 76.3008 32.4531 75.8789 33.2324V40H73.7432V30.4902H75.7559ZM85.7754 30.4902L85.8369 31.5889C86.54 30.7393 87.4629 30.3145 88.6055 30.3145C90.5859 30.3145 91.5938 31.4482 91.6289 33.7158V40H89.4932V33.8389C89.4932 33.2354 89.3613 32.79 89.0977 32.5029C88.8398 32.21 88.415 32.0635 87.8232 32.0635C86.9619 32.0635 86.3203 32.4531 85.8984 33.2324V40H83.7627V30.4902H85.7754ZM98.001 40.1758C96.6475 40.1758 95.5488 39.751 94.7051 38.9014C93.8672 38.0459 93.4482 36.9092 93.4482 35.4912V35.2275C93.4482 34.2783 93.6299 33.4316 93.9932 32.6875C94.3623 31.9375 94.8779 31.3545 95.54 30.9385C96.2021 30.5225 96.9404 30.3145 97.7549 30.3145C99.0498 30.3145 100.049 30.7275 100.752 31.5537C101.461 32.3799 101.815 33.5488 101.815 35.0605V35.9219H95.6016C95.666 36.707 95.9268 37.3281 96.3838 37.7852C96.8467 38.2422 97.4268 38.4707 98.124 38.4707C99.1025 38.4707 99.8994 38.0752 100.515 37.2842L101.666 38.3828C101.285 38.9512 100.775 39.3936 100.137 39.71C99.5039 40.0205 98.792 40.1758 98.001 40.1758ZM97.7461 32.0283C97.1602 32.0283 96.6855 32.2334 96.3223 32.6436C95.9648 33.0537 95.7363 33.625 95.6367 34.3574H99.7061V34.1992C99.6592 33.4844 99.4688 32.9453 99.1348 32.582C98.8008 32.2129 98.3379 32.0283 97.7461 32.0283ZM106.157 28.1787V30.4902H107.836V32.0723H106.157V37.3809C106.157 37.7441 106.228 38.0078 106.368 38.1719C106.515 38.3301 106.772 38.4092 107.142 38.4092C107.388 38.4092 107.637 38.3799 107.889 38.3213V39.9736C107.402 40.1084 106.934 40.1758 106.482 40.1758C104.842 40.1758 104.021 39.2705 104.021 37.46V32.0723H102.457V30.4902H104.021V28.1787H106.157ZM115.157 40C115.063 39.8184 114.981 39.5225 114.911 39.1123C114.231 39.8213 113.399 40.1758 112.415 40.1758C111.46 40.1758 110.681 39.9033 110.077 39.3584C109.474 38.8135 109.172 38.1396 109.172 37.3369C109.172 36.3232 109.547 35.5469 110.297 35.0078C111.053 34.4629 112.131 34.1904 113.531 34.1904H114.841V33.5664C114.841 33.0742 114.703 32.6816 114.428 32.3887C114.152 32.0898 113.733 31.9404 113.171 31.9404C112.685 31.9404 112.286 32.0635 111.976 32.3096C111.665 32.5498 111.51 32.8574 111.51 33.2324H109.374C109.374 32.7109 109.547 32.2246 109.893 31.7734C110.238 31.3164 110.707 30.959 111.299 30.7012C111.896 30.4434 112.562 30.3145 113.294 30.3145C114.407 30.3145 115.295 30.5957 115.957 31.1582C116.619 31.7148 116.959 32.5 116.977 33.5137V37.8027C116.977 38.6582 117.097 39.3408 117.337 39.8506V40H115.157ZM112.811 38.4619C113.232 38.4619 113.628 38.3594 113.997 38.1543C114.372 37.9492 114.653 37.6738 114.841 37.3281V35.5352H113.689C112.898 35.5352 112.304 35.6729 111.905 35.9482C111.507 36.2236 111.308 36.6133 111.308 37.1172C111.308 37.5273 111.442 37.8555 111.712 38.1016C111.987 38.3418 112.354 38.4619 112.811 38.4619ZM121.222 30.4902L121.283 31.4834C121.951 30.7041 122.865 30.3145 124.025 30.3145C125.297 30.3145 126.167 30.8008 126.636 31.7734C127.327 30.8008 128.3 30.3145 129.554 30.3145C130.603 30.3145 131.382 30.6045 131.892 31.1846C132.407 31.7646 132.671 32.6201 132.683 33.751V40H130.547V33.8125C130.547 33.209 130.415 32.7666 130.151 32.4854C129.888 32.2041 129.451 32.0635 128.842 32.0635C128.355 32.0635 127.957 32.1953 127.646 32.459C127.342 32.7168 127.128 33.0566 127.005 33.4785L127.014 40H124.878V33.7422C124.849 32.623 124.277 32.0635 123.164 32.0635C122.309 32.0635 121.702 32.4121 121.345 33.1094V40H119.209V30.4902H121.222ZM139.063 40.1758C137.71 40.1758 136.611 39.751 135.768 38.9014C134.93 38.0459 134.511 36.9092 134.511 35.4912V35.2275C134.511 34.2783 134.692 33.4316 135.056 32.6875C135.425 31.9375 135.94 31.3545 136.603 30.9385C137.265 30.5225 138.003 30.3145 138.817 30.3145C140.112 30.3145 141.111 30.7275 141.814 31.5537C142.523 32.3799 142.878 33.5488 142.878 35.0605V35.9219H136.664C136.729 36.707 136.989 37.3281 137.446 37.7852C137.909 38.2422 138.489 38.4707 139.187 38.4707C140.165 38.4707 140.962 38.0752 141.577 37.2842L142.729 38.3828C142.348 38.9512 141.838 39.3936 141.199 39.71C140.566 40.0205 139.854 40.1758 139.063 40.1758ZM138.809 32.0283C138.223 32.0283 137.748 32.2334 137.385 32.6436C137.027 33.0537 136.799 33.625 136.699 34.3574H140.769V34.1992C140.722 33.4844 140.531 32.9453 140.197 32.582C139.863 32.2129 139.4 32.0283 138.809 32.0283ZM151.298 40H149.162V30.4902H151.298V40ZM149.03 28.0205C149.03 27.6924 149.133 27.4199 149.338 27.2031C149.549 26.9863 149.848 26.8779 150.234 26.8779C150.621 26.8779 150.92 26.9863 151.131 27.2031C151.342 27.4199 151.447 27.6924 151.447 28.0205C151.447 28.3428 151.342 28.6123 151.131 28.8291C150.92 29.04 150.621 29.1455 150.234 29.1455C149.848 29.1455 149.549 29.04 149.338 28.8291C149.133 28.6123 149.03 28.3428 149.03 28.0205ZM153.258 35.1748C153.258 33.6982 153.604 32.5205 154.295 31.6416C154.992 30.7568 155.915 30.3145 157.063 30.3145C158.147 30.3145 159 30.6924 159.621 31.4482L159.718 30.4902H161.643V39.71C161.643 40.958 161.253 41.9424 160.474 42.6631C159.7 43.3838 158.654 43.7441 157.336 43.7441C156.639 43.7441 155.956 43.5977 155.288 43.3047C154.626 43.0176 154.122 42.6396 153.776 42.1709L154.787 40.8877C155.443 41.667 156.252 42.0566 157.213 42.0566C157.922 42.0566 158.481 41.8633 158.892 41.4766C159.302 41.0957 159.507 40.5332 159.507 39.7891V39.1475C158.892 39.833 158.071 40.1758 157.046 40.1758C155.933 40.1758 155.021 39.7334 154.312 38.8486C153.609 37.9639 153.258 36.7393 153.258 35.1748ZM155.385 35.3594C155.385 36.3145 155.578 37.0674 155.965 37.6182C156.357 38.1631 156.899 38.4355 157.591 38.4355C158.452 38.4355 159.091 38.0664 159.507 37.3281V33.1445C159.103 32.4238 158.47 32.0635 157.608 32.0635C156.905 32.0635 156.357 32.3418 155.965 32.8984C155.578 33.4551 155.385 34.2754 155.385 35.3594ZM169.526 40C169.433 39.8184 169.351 39.5225 169.28 39.1123C168.601 39.8213 167.769 40.1758 166.784 40.1758C165.829 40.1758 165.05 39.9033 164.446 39.3584C163.843 38.8135 163.541 38.1396 163.541 37.3369C163.541 36.3232 163.916 35.5469 164.666 35.0078C165.422 34.4629 166.5 34.1904 167.9 34.1904H169.21V33.5664C169.21 33.0742 169.072 32.6816 168.797 32.3887C168.521 32.0898 168.103 31.9404 167.54 31.9404C167.054 31.9404 166.655 32.0635 166.345 32.3096C166.034 32.5498 165.879 32.8574 165.879 33.2324H163.743C163.743 32.7109 163.916 32.2246 164.262 31.7734C164.607 31.3164 165.076 30.959 165.668 30.7012C166.266 30.4434 166.931 30.3145 167.663 30.3145C168.776 30.3145 169.664 30.5957 170.326 31.1582C170.988 31.7148 171.328 32.5 171.346 33.5137V37.8027C171.346 38.6582 171.466 39.3408 171.706 39.8506V40H169.526ZM167.18 38.4619C167.602 38.4619 167.997 38.3594 168.366 38.1543C168.741 37.9492 169.022 37.6738 169.21 37.3281V35.5352H168.059C167.268 35.5352 166.673 35.6729 166.274 35.9482C165.876 36.2236 165.677 36.6133 165.677 37.1172C165.677 37.5273 165.812 37.8555 166.081 38.1016C166.356 38.3418 166.723 38.4619 167.18 38.4619ZM175.854 40H173.719V26.5H175.854V40ZM180.864 28.1787V30.4902H182.543V32.0723H180.864V37.3809C180.864 37.7441 180.935 38.0078 181.075 38.1719C181.222 38.3301 181.479 38.4092 181.849 38.4092C182.095 38.4092 182.344 38.3799 182.596 38.3213V39.9736C182.109 40.1084 181.641 40.1758 181.189 40.1758C179.549 40.1758 178.729 39.2705 178.729 37.46V32.0723H177.164V30.4902H178.729V28.1787H180.864ZM188.265 35.1572C188.265 34.2256 188.449 33.3877 188.818 32.6436C189.188 31.8936 189.706 31.3193 190.374 30.9209C191.042 30.5166 191.81 30.3145 192.677 30.3145C193.96 30.3145 195 30.7275 195.797 31.5537C196.6 32.3799 197.033 33.4756 197.098 34.8408L197.106 35.3418C197.106 36.2793 196.925 37.1172 196.562 37.8555C196.204 38.5938 195.688 39.165 195.015 39.5693C194.347 39.9736 193.573 40.1758 192.694 40.1758C191.353 40.1758 190.277 39.7305 189.469 38.8398C188.666 37.9434 188.265 36.751 188.265 35.2627V35.1572ZM190.4 35.3418C190.4 36.3203 190.603 37.0879 191.007 37.6445C191.411 38.1953 191.974 38.4707 192.694 38.4707C193.415 38.4707 193.975 38.1895 194.373 37.627C194.777 37.0645 194.979 36.2412 194.979 35.1572C194.979 34.1963 194.771 33.4346 194.355 32.8721C193.945 32.3096 193.386 32.0283 192.677 32.0283C191.979 32.0283 191.426 32.3066 191.016 32.8633C190.605 33.4141 190.4 34.2402 190.4 35.3418ZM204.243 37.416C204.243 37.0352 204.085 36.7451 203.769 36.5459C203.458 36.3467 202.939 36.1709 202.213 36.0186C201.486 35.8662 200.88 35.6729 200.394 35.4385C199.327 34.9229 198.794 34.1758 198.794 33.1973C198.794 32.377 199.14 31.6914 199.831 31.1406C200.522 30.5898 201.401 30.3145 202.468 30.3145C203.604 30.3145 204.521 30.5957 205.219 31.1582C205.922 31.7207 206.273 32.4502 206.273 33.3467H204.138C204.138 32.9365 203.985 32.5967 203.681 32.3271C203.376 32.0518 202.972 31.9141 202.468 31.9141C201.999 31.9141 201.615 32.0225 201.316 32.2393C201.023 32.4561 200.877 32.7461 200.877 33.1094C200.877 33.4375 201.015 33.6924 201.29 33.874C201.565 34.0557 202.122 34.2402 202.96 34.4277C203.798 34.6094 204.454 34.8291 204.929 35.0869C205.409 35.3389 205.764 35.6436 205.992 36.001C206.227 36.3584 206.344 36.792 206.344 37.3018C206.344 38.1572 205.989 38.8516 205.28 39.3848C204.571 39.9121 203.643 40.1758 202.494 40.1758C201.715 40.1758 201.021 40.0352 200.411 39.7539C199.802 39.4727 199.327 39.0859 198.987 38.5938C198.647 38.1016 198.478 37.5713 198.478 37.0029H200.552C200.581 37.5068 200.771 37.8965 201.123 38.1719C201.475 38.4414 201.94 38.5762 202.521 38.5762C203.083 38.5762 203.511 38.4707 203.804 38.2598C204.097 38.043 204.243 37.7617 204.243 37.416ZM210.888 28.1787V30.4902H212.566V32.0723H210.888V37.3809C210.888 37.7441 210.958 38.0078 211.099 38.1719C211.245 38.3301 211.503 38.4092 211.872 38.4092C212.118 38.4092 212.367 38.3799 212.619 38.3213V39.9736C212.133 40.1084 211.664 40.1758 211.213 40.1758C209.572 40.1758 208.752 39.2705 208.752 37.46V32.0723H207.188V30.4902H208.752V28.1787H210.888ZM219.967 39.0684C219.34 39.8066 218.449 40.1758 217.295 40.1758C216.264 40.1758 215.481 39.874 214.948 39.2705C214.421 38.667 214.157 37.7939 214.157 36.6514V30.4902H216.293V36.625C216.293 37.832 216.794 38.4355 217.796 38.4355C218.833 38.4355 219.533 38.0635 219.896 37.3193V30.4902H222.032V40H220.02L219.967 39.0684ZM226.479 40H224.344V26.5H226.479V40ZM231.489 28.1787V30.4902H233.168V32.0723H231.489V37.3809C231.489 37.7441 231.56 38.0078 231.7 38.1719C231.847 38.3301 232.104 38.4092 232.474 38.4092C232.72 38.4092 232.969 38.3799 233.221 38.3213V39.9736C232.734 40.1084 232.266 40.1758 231.814 40.1758C230.174 40.1758 229.354 39.2705 229.354 37.46V32.0723H227.789V30.4902H229.354V28.1787H231.489ZM244.937 40H242.81V29.7256L239.672 30.7979V28.9961L244.664 27.1592H244.937V40ZM249.296 29.6641C249.296 28.8906 249.545 28.2578 250.043 27.7656C250.541 27.2676 251.194 27.0186 252.003 27.0186C252.823 27.0186 253.479 27.2676 253.972 27.7656C254.47 28.2578 254.719 28.9053 254.719 29.708V30.3408C254.719 31.1084 254.47 31.7383 253.972 32.2305C253.479 32.7227 252.829 32.9688 252.021 32.9688C251.229 32.9688 250.576 32.7285 250.061 32.248C249.551 31.7617 249.296 31.1084 249.296 30.2881V29.6641ZM250.79 30.3408C250.79 30.7451 250.901 31.0732 251.124 31.3252C251.353 31.5713 251.651 31.6943 252.021 31.6943C252.384 31.6943 252.677 31.5713 252.899 31.3252C253.122 31.0732 253.233 30.7334 253.233 30.3057V29.6641C253.233 29.2598 253.119 28.9316 252.891 28.6797C252.668 28.4277 252.372 28.3018 252.003 28.3018C251.634 28.3018 251.338 28.4307 251.115 28.6885C250.898 28.9404 250.79 29.2744 250.79 29.6904V30.3408ZM255.448 36.8623C255.448 36.0771 255.703 35.4414 256.213 34.9551C256.723 34.4688 257.373 34.2256 258.164 34.2256C258.961 34.2256 259.611 34.4688 260.115 34.9551C260.625 35.4414 260.88 36.0977 260.88 36.9238V37.5479C260.88 38.3096 260.634 38.9395 260.142 39.4375C259.655 39.9297 259.002 40.1758 258.182 40.1758C257.361 40.1758 256.699 39.9326 256.195 39.4463C255.697 38.9541 255.448 38.3066 255.448 37.5039V36.8623ZM256.942 37.5479C256.942 37.9463 257.057 38.2744 257.285 38.5322C257.52 38.7842 257.818 38.9102 258.182 38.9102C258.557 38.9102 258.85 38.79 259.061 38.5498C259.277 38.3037 259.386 37.9609 259.386 37.5215V36.8623C259.386 36.4521 259.271 36.124 259.043 35.8779C258.814 35.6318 258.521 35.5088 258.164 35.5088C257.801 35.5088 257.505 35.6318 257.276 35.8779C257.054 36.124 256.942 36.4639 256.942 36.8975V37.5479ZM252.46 39.042L251.361 38.4092L257.61 28.4072L258.709 29.04L252.46 39.042ZM277.192 35.834C277.063 37.1992 276.56 38.2656 275.681 39.0332C274.802 39.7949 273.633 40.1758 272.174 40.1758C271.154 40.1758 270.255 39.9355 269.476 39.4551C268.702 38.9688 268.104 38.2803 267.683 37.3896C267.261 36.499 267.041 35.4648 267.023 34.2871V33.0918C267.023 31.8848 267.237 30.8213 267.665 29.9014C268.093 28.9814 268.705 28.2725 269.502 27.7744C270.305 27.2764 271.23 27.0273 272.279 27.0273C273.691 27.0273 274.828 27.4111 275.689 28.1787C276.551 28.9463 277.052 30.0303 277.192 31.4307H274.978C274.872 30.5107 274.603 29.8486 274.169 29.4443C273.741 29.0342 273.111 28.8291 272.279 28.8291C271.312 28.8291 270.568 29.1836 270.047 29.8926C269.531 30.5957 269.268 31.6299 269.256 32.9951V34.1289C269.256 35.5117 269.502 36.5664 269.994 37.293C270.492 38.0195 271.219 38.3828 272.174 38.3828C273.047 38.3828 273.703 38.1865 274.143 37.7939C274.582 37.4014 274.86 36.748 274.978 35.834H277.192ZM289.4 33.9355C289.4 35.1895 289.184 36.291 288.75 37.2402C288.316 38.1836 287.695 38.9102 286.887 39.4199C286.084 39.9238 285.158 40.1758 284.109 40.1758C283.072 40.1758 282.146 39.9238 281.332 39.4199C280.523 38.9102 279.896 38.1865 279.451 37.249C279.012 36.3115 278.789 35.2305 278.783 34.0059V33.2852C278.783 32.0371 279.003 30.9355 279.442 29.9805C279.888 29.0254 280.512 28.2959 281.314 27.792C282.123 27.2822 283.049 27.0273 284.092 27.0273C285.135 27.0273 286.058 27.2793 286.86 27.7832C287.669 28.2812 288.293 29.002 288.732 29.9453C289.172 30.8828 289.395 31.9756 289.4 33.2236V33.9355ZM287.177 33.2676C287.177 31.8496 286.907 30.7627 286.368 30.0068C285.835 29.251 285.076 28.873 284.092 28.873C283.131 28.873 282.378 29.251 281.833 30.0068C281.294 30.7568 281.019 31.8203 281.007 33.1973V33.9355C281.007 35.3418 281.279 36.4287 281.824 37.1963C282.375 37.9639 283.137 38.3477 284.109 38.3477C285.094 38.3477 285.85 37.9727 286.377 37.2227C286.91 36.4727 287.177 35.377 287.177 33.9355V33.2676ZM299.877 40H291.272V38.5322L295.535 33.8828C296.15 33.1973 296.587 32.626 296.845 32.1689C297.108 31.7061 297.24 31.2432 297.24 30.7803C297.24 30.1709 297.067 29.6787 296.722 29.3037C296.382 28.9287 295.922 28.7412 295.342 28.7412C294.65 28.7412 294.114 28.9521 293.733 29.374C293.353 29.7959 293.162 30.373 293.162 31.1055H291.026C291.026 30.3262 291.202 29.626 291.554 29.0049C291.911 28.3779 292.418 27.8916 293.074 27.5459C293.736 27.2002 294.498 27.0273 295.359 27.0273C296.602 27.0273 297.58 27.3408 298.295 27.9678C299.016 28.5889 299.376 29.4502 299.376 30.5518C299.376 31.1904 299.194 31.8613 298.831 32.5645C298.474 33.2617 297.885 34.0557 297.064 34.9463L293.936 38.2949H299.877V40ZM309.211 35.9219L308.262 36.8975V40H306.126V26.5H308.262V34.2871L308.93 33.4521L311.558 30.4902H314.124L310.591 34.4541L314.502 40H312.032L309.211 35.9219ZM315.126 35.1572C315.126 34.2256 315.311 33.3877 315.68 32.6436C316.049 31.8936 316.567 31.3193 317.235 30.9209C317.903 30.5166 318.671 30.3145 319.538 30.3145C320.821 30.3145 321.861 30.7275 322.658 31.5537C323.461 32.3799 323.895 33.4756 323.959 34.8408L323.968 35.3418C323.968 36.2793 323.786 37.1172 323.423 37.8555C323.065 38.5938 322.55 39.165 321.876 39.5693C321.208 39.9736 320.435 40.1758 319.556 40.1758C318.214 40.1758 317.139 39.7305 316.33 38.8398C315.527 37.9434 315.126 36.751 315.126 35.2627V35.1572ZM317.262 35.3418C317.262 36.3203 317.464 37.0879 317.868 37.6445C318.272 38.1953 318.835 38.4707 319.556 38.4707C320.276 38.4707 320.836 38.1895 321.234 37.627C321.639 37.0645 321.841 36.2412 321.841 35.1572C321.841 34.1963 321.633 33.4346 321.217 32.8721C320.807 32.3096 320.247 32.0283 319.538 32.0283C318.841 32.0283 318.287 32.3066 317.877 32.8633C317.467 33.4141 317.262 34.2402 317.262 35.3418ZM325.4 35.1748C325.4 33.6982 325.746 32.5205 326.438 31.6416C327.135 30.7568 328.058 30.3145 329.206 30.3145C330.29 30.3145 331.143 30.6924 331.764 31.4482L331.86 30.4902H333.785V39.71C333.785 40.958 333.396 41.9424 332.616 42.6631C331.843 43.3838 330.797 43.7441 329.479 43.7441C328.781 43.7441 328.099 43.5977 327.431 43.3047C326.769 43.0176 326.265 42.6396 325.919 42.1709L326.93 40.8877C327.586 41.667 328.395 42.0566 329.355 42.0566C330.064 42.0566 330.624 41.8633 331.034 41.4766C331.444 41.0957 331.649 40.5332 331.649 39.7891V39.1475C331.034 39.833 330.214 40.1758 329.188 40.1758C328.075 40.1758 327.164 39.7334 326.455 38.8486C325.752 37.9639 325.4 36.7393 325.4 35.1748ZM327.527 35.3594C327.527 36.3145 327.721 37.0674 328.107 37.6182C328.5 38.1631 329.042 38.4355 329.733 38.4355C330.595 38.4355 331.233 38.0664 331.649 37.3281V33.1445C331.245 32.4238 330.612 32.0635 329.751 32.0635C329.048 32.0635 328.5 32.3418 328.107 32.8984C327.721 33.4551 327.527 34.2754 327.527 35.3594ZM341.748 39.0684C341.121 39.8066 340.23 40.1758 339.076 40.1758C338.045 40.1758 337.263 39.874 336.729 39.2705C336.202 38.667 335.938 37.7939 335.938 36.6514V30.4902H338.074V36.625C338.074 37.832 338.575 38.4355 339.577 38.4355C340.614 38.4355 341.314 38.0635 341.678 37.3193V30.4902H343.813V40H341.801L341.748 39.0684ZM351.319 37.416C351.319 37.0352 351.161 36.7451 350.845 36.5459C350.534 36.3467 350.016 36.1709 349.289 36.0186C348.562 35.8662 347.956 35.6729 347.47 35.4385C346.403 34.9229 345.87 34.1758 345.87 33.1973C345.87 32.377 346.216 31.6914 346.907 31.1406C347.599 30.5898 348.478 30.3145 349.544 30.3145C350.681 30.3145 351.598 30.5957 352.295 31.1582C352.998 31.7207 353.35 32.4502 353.35 33.3467H351.214C351.214 32.9365 351.062 32.5967 350.757 32.3271C350.452 32.0518 350.048 31.9141 349.544 31.9141C349.075 31.9141 348.691 32.0225 348.393 32.2393C348.1 32.4561 347.953 32.7461 347.953 33.1094C347.953 33.4375 348.091 33.6924 348.366 33.874C348.642 34.0557 349.198 34.2402 350.036 34.4277C350.874 34.6094 351.53 34.8291 352.005 35.0869C352.485 35.3389 352.84 35.6436 353.068 36.001C353.303 36.3584 353.42 36.792 353.42 37.3018C353.42 38.1572 353.065 38.8516 352.356 39.3848C351.647 39.9121 350.719 40.1758 349.57 40.1758C348.791 40.1758 348.097 40.0352 347.487 39.7539C346.878 39.4727 346.403 39.0859 346.063 38.5938C345.724 38.1016 345.554 37.5713 345.554 37.0029H347.628C347.657 37.5068 347.848 37.8965 348.199 38.1719C348.551 38.4414 349.017 38.5762 349.597 38.5762C350.159 38.5762 350.587 38.4707 350.88 38.2598C351.173 38.043 351.319 37.7617 351.319 37.416ZM357.964 28.1787V30.4902H359.643V32.0723H357.964V37.3809C357.964 37.7441 358.034 38.0078 358.175 38.1719C358.321 38.3301 358.579 38.4092 358.948 38.4092C359.194 38.4092 359.443 38.3799 359.695 38.3213V39.9736C359.209 40.1084 358.74 40.1758 358.289 40.1758C356.648 40.1758 355.828 39.2705 355.828 37.46V32.0723H354.264V30.4902H355.828V28.1787H357.964ZM365.47 40.1758C364.116 40.1758 363.018 39.751 362.174 38.9014C361.336 38.0459 360.917 36.9092 360.917 35.4912V35.2275C360.917 34.2783 361.099 33.4316 361.462 32.6875C361.831 31.9375 362.347 31.3545 363.009 30.9385C363.671 30.5225 364.409 30.3145 365.224 30.3145C366.519 30.3145 367.518 30.7275 368.221 31.5537C368.93 32.3799 369.284 33.5488 369.284 35.0605V35.9219H363.07C363.135 36.707 363.396 37.3281 363.853 37.7852C364.315 38.2422 364.896 38.4707 365.593 38.4707C366.571 38.4707 367.368 38.0752 367.983 37.2842L369.135 38.3828C368.754 38.9512 368.244 39.3936 367.605 39.71C366.973 40.0205 366.261 40.1758 365.47 40.1758ZM365.215 32.0283C364.629 32.0283 364.154 32.2334 363.791 32.6436C363.434 33.0537 363.205 33.625 363.105 34.3574H367.175V34.1992C367.128 33.4844 366.938 32.9453 366.604 32.582C366.27 32.2129 365.807 32.0283 365.215 32.0283ZM378.785 37.293L380.798 30.4902H383.004L379.708 40H377.854L374.531 30.4902H376.746L378.785 37.293ZM389.886 40C389.792 39.8184 389.71 39.5225 389.64 39.1123C388.96 39.8213 388.128 40.1758 387.144 40.1758C386.188 40.1758 385.409 39.9033 384.806 39.3584C384.202 38.8135 383.9 38.1396 383.9 37.3369C383.9 36.3232 384.275 35.5469 385.025 35.0078C385.781 34.4629 386.859 34.1904 388.26 34.1904H389.569V33.5664C389.569 33.0742 389.432 32.6816 389.156 32.3887C388.881 32.0898 388.462 31.9404 387.899 31.9404C387.413 31.9404 387.015 32.0635 386.704 32.3096C386.394 32.5498 386.238 32.8574 386.238 33.2324H384.103C384.103 32.7109 384.275 32.2246 384.621 31.7734C384.967 31.3164 385.436 30.959 386.027 30.7012C386.625 30.4434 387.29 30.3145 388.022 30.3145C389.136 30.3145 390.023 30.5957 390.686 31.1582C391.348 31.7148 391.688 32.5 391.705 33.5137V37.8027C391.705 38.6582 391.825 39.3408 392.065 39.8506V40H389.886ZM387.539 38.4619C387.961 38.4619 388.356 38.3594 388.726 38.1543C389.101 37.9492 389.382 37.6738 389.569 37.3281V35.5352H388.418C387.627 35.5352 387.032 35.6729 386.634 35.9482C386.235 36.2236 386.036 36.6133 386.036 37.1172C386.036 37.5273 386.171 37.8555 386.44 38.1016C386.716 38.3418 387.082 38.4619 387.539 38.4619ZM384.981 27.9941C384.981 27.7012 385.078 27.4551 385.271 27.2559C385.471 27.0566 385.743 26.957 386.089 26.957C386.435 26.957 386.707 27.0566 386.906 27.2559C387.105 27.4551 387.205 27.7012 387.205 27.9941C387.205 28.2871 387.105 28.5332 386.906 28.7324C386.707 28.9316 386.435 29.0312 386.089 29.0312C385.743 29.0312 385.471 28.9316 385.271 28.7324C385.078 28.5332 384.981 28.2871 384.981 27.9941ZM388.998 28.0029C388.998 27.71 389.095 27.4639 389.288 27.2646C389.487 27.0654 389.76 26.9658 390.105 26.9658C390.451 26.9658 390.724 27.0654 390.923 27.2646C391.122 27.4639 391.222 27.71 391.222 28.0029C391.222 28.2959 391.122 28.542 390.923 28.7412C390.724 28.9404 390.451 29.04 390.105 29.04C389.76 29.04 389.487 28.9404 389.288 28.7412C389.095 28.542 388.998 28.2959 388.998 28.0029ZM396.047 31.5273C396.744 30.7188 397.626 30.3145 398.692 30.3145C400.72 30.3145 401.748 31.4717 401.777 33.7861V40H399.642V33.8652C399.642 33.209 399.498 32.7461 399.211 32.4766C398.93 32.2012 398.514 32.0635 397.963 32.0635C397.107 32.0635 396.469 32.4443 396.047 33.2061V40H393.911V26.5H396.047V31.5273ZM408.132 40.1758C406.778 40.1758 405.68 39.751 404.836 38.9014C403.998 38.0459 403.579 36.9092 403.579 35.4912V35.2275C403.579 34.2783 403.761 33.4316 404.124 32.6875C404.493 31.9375 405.009 31.3545 405.671 30.9385C406.333 30.5225 407.071 30.3145 407.886 30.3145C409.181 30.3145 410.18 30.7275 410.883 31.5537C411.592 32.3799 411.946 33.5488 411.946 35.0605V35.9219H405.732C405.797 36.707 406.058 37.3281 406.515 37.7852C406.978 38.2422 407.558 38.4707 408.255 38.4707C409.233 38.4707 410.03 38.0752 410.646 37.2842L411.797 38.3828C411.416 38.9512 410.906 39.3936 410.268 39.71C409.635 40.0205 408.923 40.1758 408.132 40.1758ZM407.877 32.0283C407.291 32.0283 406.816 32.2334 406.453 32.6436C406.096 33.0537 405.867 33.625 405.768 34.3574H409.837V34.1992C409.79 33.4844 409.6 32.9453 409.266 32.582C408.932 32.2129 408.469 32.0283 407.877 32.0283ZM415.594 30.4902L415.655 31.5889C416.358 30.7393 417.281 30.3145 418.424 30.3145C420.404 30.3145 421.412 31.4482 421.447 33.7158V40H419.312V33.8389C419.312 33.2354 419.18 32.79 418.916 32.5029C418.658 32.21 418.233 32.0635 417.642 32.0635C416.78 32.0635 416.139 32.4531 415.717 33.2324V40H413.581V30.4902H415.594ZM423.231 35.1748C423.231 33.71 423.571 32.5352 424.251 31.6504C424.931 30.7598 425.842 30.3145 426.984 30.3145C427.992 30.3145 428.807 30.666 429.428 31.3691V26.5H431.563V40H429.63L429.524 39.0156C428.886 39.7891 428.033 40.1758 426.967 40.1758C425.854 40.1758 424.951 39.7275 424.26 38.8311C423.574 37.9346 423.231 36.7158 423.231 35.1748ZM425.367 35.3594C425.367 36.3262 425.552 37.082 425.921 37.627C426.296 38.166 426.826 38.4355 427.512 38.4355C428.385 38.4355 429.023 38.0459 429.428 37.2666V33.2061C429.035 32.4443 428.402 32.0635 427.529 32.0635C426.838 32.0635 426.305 32.3389 425.93 32.8896C425.555 33.4346 425.367 34.2578 425.367 35.3594ZM439.474 40C439.38 39.8184 439.298 39.5225 439.228 39.1123C438.548 39.8213 437.716 40.1758 436.731 40.1758C435.776 40.1758 434.997 39.9033 434.394 39.3584C433.79 38.8135 433.488 38.1396 433.488 37.3369C433.488 36.3232 433.863 35.5469 434.613 35.0078C435.369 34.4629 436.447 34.1904 437.848 34.1904H439.157V33.5664C439.157 33.0742 439.02 32.6816 438.744 32.3887C438.469 32.0898 438.05 31.9404 437.487 31.9404C437.001 31.9404 436.603 32.0635 436.292 32.3096C435.981 32.5498 435.826 32.8574 435.826 33.2324H433.69C433.69 32.7109 433.863 32.2246 434.209 31.7734C434.555 31.3164 435.023 30.959 435.615 30.7012C436.213 30.4434 436.878 30.3145 437.61 30.3145C438.724 30.3145 439.611 30.5957 440.273 31.1582C440.936 31.7148 441.275 32.5 441.293 33.5137V37.8027C441.293 38.6582 441.413 39.3408 441.653 39.8506V40H439.474ZM437.127 38.4619C437.549 38.4619 437.944 38.3594 438.313 38.1543C438.688 37.9492 438.97 37.6738 439.157 37.3281V35.5352H438.006C437.215 35.5352 436.62 35.6729 436.222 35.9482C435.823 36.2236 435.624 36.6133 435.624 37.1172C435.624 37.5273 435.759 37.8555 436.028 38.1016C436.304 38.3418 436.67 38.4619 437.127 38.4619ZM445.538 30.4902L445.6 31.4834C446.268 30.7041 447.182 30.3145 448.342 30.3145C449.613 30.3145 450.483 30.8008 450.952 31.7734C451.644 30.8008 452.616 30.3145 453.87 30.3145C454.919 30.3145 455.698 30.6045 456.208 31.1846C456.724 31.7646 456.987 32.6201 456.999 33.751V40H454.863V33.8125C454.863 33.209 454.731 32.7666 454.468 32.4854C454.204 32.2041 453.768 32.0635 453.158 32.0635C452.672 32.0635 452.273 32.1953 451.963 32.459C451.658 32.7168 451.444 33.0566 451.321 33.4785L451.33 40H449.194V33.7422C449.165 32.623 448.594 32.0635 447.48 32.0635C446.625 32.0635 446.019 32.4121 445.661 33.1094V40H443.525V30.4902H445.538ZM461.464 40H459.328V30.4902H461.464V40ZM459.196 28.0205C459.196 27.6924 459.299 27.4199 459.504 27.2031C459.715 26.9863 460.014 26.8779 460.4 26.8779C460.787 26.8779 461.086 26.9863 461.297 27.2031C461.508 27.4199 461.613 27.6924 461.613 28.0205C461.613 28.3428 461.508 28.6123 461.297 28.8291C461.086 29.04 460.787 29.1455 460.4 29.1455C460.014 29.1455 459.715 29.04 459.504 28.8291C459.299 28.6123 459.196 28.3428 459.196 28.0205ZM469.128 37.416C469.128 37.0352 468.97 36.7451 468.653 36.5459C468.343 36.3467 467.824 36.1709 467.098 36.0186C466.371 35.8662 465.765 35.6729 465.278 35.4385C464.212 34.9229 463.679 34.1758 463.679 33.1973C463.679 32.377 464.024 31.6914 464.716 31.1406C465.407 30.5898 466.286 30.3145 467.353 30.3145C468.489 30.3145 469.406 30.5957 470.104 31.1582C470.807 31.7207 471.158 32.4502 471.158 33.3467H469.022C469.022 32.9365 468.87 32.5967 468.565 32.3271C468.261 32.0518 467.856 31.9141 467.353 31.9141C466.884 31.9141 466.5 32.0225 466.201 32.2393C465.908 32.4561 465.762 32.7461 465.762 33.1094C465.762 33.4375 465.899 33.6924 466.175 33.874C466.45 34.0557 467.007 34.2402 467.845 34.4277C468.683 34.6094 469.339 34.8291 469.813 35.0869C470.294 35.3389 470.648 35.6436 470.877 36.001C471.111 36.3584 471.229 36.792 471.229 37.3018C471.229 38.1572 470.874 38.8516 470.165 39.3848C469.456 39.9121 468.527 40.1758 467.379 40.1758C466.6 40.1758 465.905 40.0352 465.296 39.7539C464.687 39.4727 464.212 39.0859 463.872 38.5938C463.532 38.1016 463.362 37.5713 463.362 37.0029H465.437C465.466 37.5068 465.656 37.8965 466.008 38.1719C466.359 38.4414 466.825 38.5762 467.405 38.5762C467.968 38.5762 468.396 38.4707 468.688 38.2598C468.981 38.043 469.128 37.7617 469.128 37.416ZM477.284 40.1758C475.931 40.1758 474.832 39.751 473.988 38.9014C473.15 38.0459 472.731 36.9092 472.731 35.4912V35.2275C472.731 34.2783 472.913 33.4316 473.276 32.6875C473.646 31.9375 474.161 31.3545 474.823 30.9385C475.485 30.5225 476.224 30.3145 477.038 30.3145C478.333 30.3145 479.332 30.7275 480.035 31.5537C480.744 32.3799 481.099 33.5488 481.099 35.0605V35.9219H474.885C474.949 36.707 475.21 37.3281 475.667 37.7852C476.13 38.2422 476.71 38.4707 477.407 38.4707C478.386 38.4707 479.183 38.0752 479.798 37.2842L480.949 38.3828C480.568 38.9512 480.059 39.3936 479.42 39.71C478.787 40.0205 478.075 40.1758 477.284 40.1758ZM477.029 32.0283C476.443 32.0283 475.969 32.2334 475.605 32.6436C475.248 33.0537 475.02 33.625 474.92 34.3574H478.989V34.1992C478.942 33.4844 478.752 32.9453 478.418 32.582C478.084 32.2129 477.621 32.0283 477.029 32.0283ZM485.854 35.9219L484.904 36.8975V40H482.769V26.5H484.904V34.2871L485.572 33.4521L488.2 30.4902H490.767L487.233 34.4541L491.145 40H488.675L485.854 35.9219ZM497.499 37.416C497.499 37.0352 497.341 36.7451 497.024 36.5459C496.714 36.3467 496.195 36.1709 495.469 36.0186C494.742 35.8662 494.136 35.6729 493.649 35.4385C492.583 34.9229 492.05 34.1758 492.05 33.1973C492.05 32.377 492.396 31.6914 493.087 31.1406C493.778 30.5898 494.657 30.3145 495.724 30.3145C496.86 30.3145 497.777 30.5957 498.475 31.1582C499.178 31.7207 499.529 32.4502 499.529 33.3467H497.394C497.394 32.9365 497.241 32.5967 496.937 32.3271C496.632 32.0518 496.228 31.9141 495.724 31.9141C495.255 31.9141 494.871 32.0225 494.572 32.2393C494.279 32.4561 494.133 32.7461 494.133 33.1094C494.133 33.4375 494.271 33.6924 494.546 33.874C494.821 34.0557 495.378 34.2402 496.216 34.4277C497.054 34.6094 497.71 34.8291 498.185 35.0869C498.665 35.3389 499.02 35.6436 499.248 36.001C499.482 36.3584 499.6 36.792 499.6 37.3018C499.6 38.1572 499.245 38.8516 498.536 39.3848C497.827 39.9121 496.898 40.1758 495.75 40.1758C494.971 40.1758 494.276 40.0352 493.667 39.7539C493.058 39.4727 492.583 39.0859 492.243 38.5938C491.903 38.1016 491.733 37.5713 491.733 37.0029H493.808C493.837 37.5068 494.027 37.8965 494.379 38.1719C494.73 38.4414 495.196 38.5762 495.776 38.5762C496.339 38.5762 496.767 38.4707 497.06 38.2598C497.353 38.043 497.499 37.7617 497.499 37.416ZM511.632 40C511.538 39.8184 511.456 39.5225 511.386 39.1123C510.706 39.8213 509.874 40.1758 508.89 40.1758C507.935 40.1758 507.155 39.9033 506.552 39.3584C505.948 38.8135 505.646 38.1396 505.646 37.3369C505.646 36.3232 506.021 35.5469 506.771 35.0078C507.527 34.4629 508.605 34.1904 510.006 34.1904H511.315V33.5664C511.315 33.0742 511.178 32.6816 510.902 32.3887C510.627 32.0898 510.208 31.9404 509.646 31.9404C509.159 31.9404 508.761 32.0635 508.45 32.3096C508.14 32.5498 507.984 32.8574 507.984 33.2324H505.849C505.849 32.7109 506.021 32.2246 506.367 31.7734C506.713 31.3164 507.182 30.959 507.773 30.7012C508.371 30.4434 509.036 30.3145 509.769 30.3145C510.882 30.3145 511.77 30.5957 512.432 31.1582C513.094 31.7148 513.434 32.5 513.451 33.5137V37.8027C513.451 38.6582 513.571 39.3408 513.812 39.8506V40H511.632ZM509.285 38.4619C509.707 38.4619 510.103 38.3594 510.472 38.1543C510.847 37.9492 511.128 37.6738 511.315 37.3281V35.5352H510.164C509.373 35.5352 508.778 35.6729 508.38 35.9482C507.981 36.2236 507.782 36.6133 507.782 37.1172C507.782 37.5273 507.917 37.8555 508.187 38.1016C508.462 38.3418 508.828 38.4619 509.285 38.4619ZM518.364 28.1787V30.4902H520.043V32.0723H518.364V37.3809C518.364 37.7441 518.435 38.0078 518.575 38.1719C518.722 38.3301 518.979 38.4092 519.349 38.4092C519.595 38.4092 519.844 38.3799 520.096 38.3213V39.9736C519.609 40.1084 519.141 40.1758 518.689 40.1758C517.049 40.1758 516.229 39.2705 516.229 37.46V32.0723H514.664V30.4902H516.229V28.1787H518.364ZM523.69 30.4902L523.752 31.4834C524.42 30.7041 525.334 30.3145 526.494 30.3145C527.766 30.3145 528.636 30.8008 529.104 31.7734C529.796 30.8008 530.769 30.3145 532.022 30.3145C533.071 30.3145 533.851 30.6045 534.36 31.1846C534.876 31.7646 535.14 32.6201 535.151 33.751V40H533.016V33.8125C533.016 33.209 532.884 32.7666 532.62 32.4854C532.356 32.2041 531.92 32.0635 531.311 32.0635C530.824 32.0635 530.426 32.1953 530.115 32.459C529.811 32.7168 529.597 33.0566 529.474 33.4785L529.482 40H527.347V33.7422C527.317 32.623 526.746 32.0635 525.633 32.0635C524.777 32.0635 524.171 32.4121 523.813 33.1094V40H521.678V30.4902H523.69ZM536.944 35.1572C536.944 34.2256 537.129 33.3877 537.498 32.6436C537.867 31.8936 538.386 31.3193 539.054 30.9209C539.722 30.5166 540.489 30.3145 541.356 30.3145C542.64 30.3145 543.68 30.7275 544.477 31.5537C545.279 32.3799 545.713 33.4756 545.777 34.8408L545.786 35.3418C545.786 36.2793 545.604 37.1172 545.241 37.8555C544.884 38.5938 544.368 39.165 543.694 39.5693C543.026 39.9736 542.253 40.1758 541.374 40.1758C540.032 40.1758 538.957 39.7305 538.148 38.8398C537.346 37.9434 536.944 36.751 536.944 35.2627V35.1572ZM539.08 35.3418C539.08 36.3203 539.282 37.0879 539.687 37.6445C540.091 38.1953 540.653 38.4707 541.374 38.4707C542.095 38.4707 542.654 38.1895 543.053 37.627C543.457 37.0645 543.659 36.2412 543.659 35.1572C543.659 34.1963 543.451 33.4346 543.035 32.8721C542.625 32.3096 542.065 32.0283 541.356 32.0283C540.659 32.0283 540.105 32.3066 539.695 32.8633C539.285 33.4141 539.08 34.2402 539.08 35.3418ZM552.923 37.416C552.923 37.0352 552.765 36.7451 552.448 36.5459C552.138 36.3467 551.619 36.1709 550.893 36.0186C550.166 35.8662 549.56 35.6729 549.073 35.4385C548.007 34.9229 547.474 34.1758 547.474 33.1973C547.474 32.377 547.819 31.6914 548.511 31.1406C549.202 30.5898 550.081 30.3145 551.147 30.3145C552.284 30.3145 553.201 30.5957 553.898 31.1582C554.602 31.7207 554.953 32.4502 554.953 33.3467H552.817C552.817 32.9365 552.665 32.5967 552.36 32.3271C552.056 32.0518 551.651 31.9141 551.147 31.9141C550.679 31.9141 550.295 32.0225 549.996 32.2393C549.703 32.4561 549.557 32.7461 549.557 33.1094C549.557 33.4375 549.694 33.6924 549.97 33.874C550.245 34.0557 550.802 34.2402 551.64 34.4277C552.478 34.6094 553.134 34.8291 553.608 35.0869C554.089 35.3389 554.443 35.6436 554.672 36.001C554.906 36.3584 555.023 36.792 555.023 37.3018C555.023 38.1572 554.669 38.8516 553.96 39.3848C553.251 39.9121 552.322 40.1758 551.174 40.1758C550.395 40.1758 549.7 40.0352 549.091 39.7539C548.481 39.4727 548.007 39.0859 547.667 38.5938C547.327 38.1016 547.157 37.5713 547.157 37.0029H549.231C549.261 37.5068 549.451 37.8965 549.803 38.1719C550.154 38.4414 550.62 38.5762 551.2 38.5762C551.763 38.5762 552.19 38.4707 552.483 38.2598C552.776 38.043 552.923 37.7617 552.923 37.416ZM557.643 40V32.0723H556.192V30.4902H557.643V29.6201C557.643 28.5654 557.936 27.751 558.521 27.1768C559.107 26.6025 559.928 26.3154 560.982 26.3154C561.357 26.3154 561.756 26.3682 562.178 26.4736L562.125 28.1436C561.891 28.0967 561.618 28.0732 561.308 28.0732C560.288 28.0732 559.778 28.5977 559.778 29.6465V30.4902H561.712V32.0723H559.778V40H557.643ZM568.954 40C568.86 39.8184 568.778 39.5225 568.708 39.1123C568.028 39.8213 567.196 40.1758 566.212 40.1758C565.257 40.1758 564.478 39.9033 563.874 39.3584C563.271 38.8135 562.969 38.1396 562.969 37.3369C562.969 36.3232 563.344 35.5469 564.094 35.0078C564.85 34.4629 565.928 34.1904 567.328 34.1904H568.638V33.5664C568.638 33.0742 568.5 32.6816 568.225 32.3887C567.949 32.0898 567.53 31.9404 566.968 31.9404C566.481 31.9404 566.083 32.0635 565.772 32.3096C565.462 32.5498 565.307 32.8574 565.307 33.2324H563.171C563.171 32.7109 563.344 32.2246 563.689 31.7734C564.035 31.3164 564.504 30.959 565.096 30.7012C565.693 30.4434 566.358 30.3145 567.091 30.3145C568.204 30.3145 569.092 30.5957 569.754 31.1582C570.416 31.7148 570.756 32.5 570.773 33.5137V37.8027C570.773 38.6582 570.894 39.3408 571.134 39.8506V40H568.954ZM566.607 38.4619C567.029 38.4619 567.425 38.3594 567.794 38.1543C568.169 37.9492 568.45 37.6738 568.638 37.3281V35.5352H567.486C566.695 35.5352 566.101 35.6729 565.702 35.9482C565.304 36.2236 565.104 36.6133 565.104 37.1172C565.104 37.5273 565.239 37.8555 565.509 38.1016C565.784 38.3418 566.15 38.4619 566.607 38.4619ZM564.05 27.9941C564.05 27.7012 564.146 27.4551 564.34 27.2559C564.539 27.0566 564.812 26.957 565.157 26.957C565.503 26.957 565.775 27.0566 565.975 27.2559C566.174 27.4551 566.273 27.7012 566.273 27.9941C566.273 28.2871 566.174 28.5332 565.975 28.7324C565.775 28.9316 565.503 29.0312 565.157 29.0312C564.812 29.0312 564.539 28.9316 564.34 28.7324C564.146 28.5332 564.05 28.2871 564.05 27.9941ZM568.066 28.0029C568.066 27.71 568.163 27.4639 568.356 27.2646C568.556 27.0654 568.828 26.9658 569.174 26.9658C569.52 26.9658 569.792 27.0654 569.991 27.2646C570.19 27.4639 570.29 27.71 570.29 28.0029C570.29 28.2959 570.19 28.542 569.991 28.7412C569.792 28.9404 569.52 29.04 569.174 29.04C568.828 29.04 568.556 28.9404 568.356 28.7412C568.163 28.542 568.066 28.2959 568.066 28.0029ZM578.692 40C578.599 39.8184 578.517 39.5225 578.446 39.1123C577.767 39.8213 576.935 40.1758 575.95 40.1758C574.995 40.1758 574.216 39.9033 573.612 39.3584C573.009 38.8135 572.707 38.1396 572.707 37.3369C572.707 36.3232 573.082 35.5469 573.832 35.0078C574.588 34.4629 575.666 34.1904 577.066 34.1904H578.376V33.5664C578.376 33.0742 578.238 32.6816 577.963 32.3887C577.688 32.0898 577.269 31.9404 576.706 31.9404C576.22 31.9404 575.821 32.0635 575.511 32.3096C575.2 32.5498 575.045 32.8574 575.045 33.2324H572.909C572.909 32.7109 573.082 32.2246 573.428 31.7734C573.773 31.3164 574.242 30.959 574.834 30.7012C575.432 30.4434 576.097 30.3145 576.829 30.3145C577.942 30.3145 578.83 30.5957 579.492 31.1582C580.154 31.7148 580.494 32.5 580.512 33.5137V37.8027C580.512 38.6582 580.632 39.3408 580.872 39.8506V40H578.692ZM576.346 38.4619C576.768 38.4619 577.163 38.3594 577.532 38.1543C577.907 37.9492 578.188 37.6738 578.376 37.3281V35.5352H577.225C576.434 35.5352 575.839 35.6729 575.44 35.9482C575.042 36.2236 574.843 36.6133 574.843 37.1172C574.843 37.5273 574.978 37.8555 575.247 38.1016C575.522 38.3418 575.889 38.4619 576.346 38.4619ZM573.788 27.9941C573.788 27.7012 573.885 27.4551 574.078 27.2559C574.277 27.0566 574.55 26.957 574.896 26.957C575.241 26.957 575.514 27.0566 575.713 27.2559C575.912 27.4551 576.012 27.7012 576.012 27.9941C576.012 28.2871 575.912 28.5332 575.713 28.7324C575.514 28.9316 575.241 29.0312 574.896 29.0312C574.55 29.0312 574.277 28.9316 574.078 28.7324C573.885 28.5332 573.788 28.2871 573.788 27.9941ZM577.805 28.0029C577.805 27.71 577.901 27.4639 578.095 27.2646C578.294 27.0654 578.566 26.9658 578.912 26.9658C579.258 26.9658 579.53 27.0654 579.729 27.2646C579.929 27.4639 580.028 27.71 580.028 28.0029C580.028 28.2959 579.929 28.542 579.729 28.7412C579.53 28.9404 579.258 29.04 578.912 29.04C578.566 29.04 578.294 28.9404 578.095 28.7412C577.901 28.542 577.805 28.2959 577.805 28.0029ZM587.728 32.4414C587.446 32.3945 587.156 32.3711 586.857 32.3711C585.879 32.3711 585.22 32.7461 584.88 33.4961V40H582.744V30.4902H584.783L584.836 31.5537C585.352 30.7275 586.066 30.3145 586.98 30.3145C587.285 30.3145 587.537 30.3555 587.736 30.4375L587.728 32.4414ZM591.349 40H589.213V30.4902H591.349V40ZM589.081 28.0205C589.081 27.6924 589.184 27.4199 589.389 27.2031C589.6 26.9863 589.898 26.8779 590.285 26.8779C590.672 26.8779 590.971 26.9863 591.182 27.2031C591.393 27.4199 591.498 27.6924 591.498 28.0205C591.498 28.3428 591.393 28.6123 591.182 28.8291C590.971 29.04 590.672 29.1455 590.285 29.1455C589.898 29.1455 589.6 29.04 589.389 28.8291C589.184 28.6123 589.081 28.3428 589.081 28.0205ZM599.013 37.416C599.013 37.0352 598.854 36.7451 598.538 36.5459C598.228 36.3467 597.709 36.1709 596.982 36.0186C596.256 35.8662 595.649 35.6729 595.163 35.4385C594.097 34.9229 593.563 34.1758 593.563 33.1973C593.563 32.377 593.909 31.6914 594.601 31.1406C595.292 30.5898 596.171 30.3145 597.237 30.3145C598.374 30.3145 599.291 30.5957 599.988 31.1582C600.691 31.7207 601.043 32.4502 601.043 33.3467H598.907C598.907 32.9365 598.755 32.5967 598.45 32.3271C598.146 32.0518 597.741 31.9141 597.237 31.9141C596.769 31.9141 596.385 32.0225 596.086 32.2393C595.793 32.4561 595.646 32.7461 595.646 33.1094C595.646 33.4375 595.784 33.6924 596.06 33.874C596.335 34.0557 596.892 34.2402 597.729 34.4277C598.567 34.6094 599.224 34.8291 599.698 35.0869C600.179 35.3389 600.533 35.6436 600.762 36.001C600.996 36.3584 601.113 36.792 601.113 37.3018C601.113 38.1572 600.759 38.8516 600.05 39.3848C599.341 39.9121 598.412 40.1758 597.264 40.1758C596.484 40.1758 595.79 40.0352 595.181 39.7539C594.571 39.4727 594.097 39.0859 593.757 38.5938C593.417 38.1016 593.247 37.5713 593.247 37.0029H595.321C595.351 37.5068 595.541 37.8965 595.893 38.1719C596.244 38.4414 596.71 38.5762 597.29 38.5762C597.853 38.5762 598.28 38.4707 598.573 38.2598C598.866 38.043 599.013 37.7617 599.013 37.416Z" fill="#495057"/>
<defs>
<linearGradient id="paint0_linear_719:8" x1="38" y1="31.5348" x2="38" y2="43.5254" gradientUnits="userSpaceOnUse">
<stop stop-color="#00D924"/>
<stop offset="1" stop-color="#00CB1B"/>
</linearGradient>
<linearGradient id="paint1_linear_719:8" x1="45.5" y1="24.0355" x2="45.5" y2="34.7086" gradientUnits="userSpaceOnUse">
<stop offset="0.1562" stop-color="#009C00"/>
<stop offset="1" stop-color="#00BE20"/>
</linearGradient>
<linearGradient id="paint2_linear_719:8" x1="30.5" y1="35.1726" x2="30.5" y2="23.5715" gradientUnits="userSpaceOnUse">
<stop stop-color="#FFE37D"/>
<stop offset="1" stop-color="#FFC900"/>
</linearGradient>
</defs>
</svg>
