<svg width="39" height="39" viewBox="0 0 39 39" fill="none" xmlns="http://www.w3.org/2000/svg">
<rect width="39" height="39" rx="19.5" fill="#B1ECDB"/>
<path d="M21.5904 4.79313L27.9065 11.2476C29.467 12.8429 30.5414 14.8493 31.0041 17.0324C31.4667 19.2156 31.2986 21.4853 30.5193 23.5765C29.7399 25.6676 28.3816 27.4938 26.603 28.8417C24.8244 30.1896 22.699 31.0035 20.475 31.1883V34.1211C20.475 34.3797 20.3723 34.6277 20.1894 34.8106C20.0066 34.9934 19.7586 35.0961 19.5 35.0961C19.2414 35.0961 18.9934 34.9934 18.8106 34.8106C18.6277 34.6277 18.525 34.3797 18.525 34.1211V31.1883C16.3012 31.0031 14.176 30.189 12.3977 28.841C10.6193 27.493 9.26131 25.6668 8.48221 23.5757C7.70312 21.4846 7.53514 19.215 7.99789 17.032C8.46064 14.849 9.53501 12.8428 11.0955 11.2476L17.4096 4.79313C17.682 4.51483 18.0072 4.29372 18.3662 4.14277C18.7251 3.99182 19.1106 3.91406 19.5 3.91406C19.8894 3.91406 20.2749 3.99182 20.6339 4.14277C20.9928 4.29372 21.318 4.51483 21.5904 4.79313ZM20.475 29.2305C22.3138 29.0471 24.0633 28.348 25.5222 27.2137C26.981 26.0795 28.0897 24.5562 28.7206 22.8193C29.3515 21.0825 29.479 19.2027 29.0882 17.3966C28.6975 15.5905 27.8046 13.9315 26.5122 12.6107L20.1962 6.15618C20.1054 6.06361 19.9971 5.99007 19.8775 5.93987C19.758 5.88967 19.6297 5.86382 19.5 5.86382C19.3704 5.86382 19.242 5.88967 19.1225 5.93987C19.003 5.99007 18.8946 6.06361 18.8039 6.15618L12.4878 12.6107C11.1954 13.9315 10.3025 15.5905 9.91177 17.3966C9.52106 19.2027 9.64851 21.0825 10.2794 22.8193C10.9103 24.5562 12.0191 26.0795 13.4779 27.2137C14.9367 28.348 16.6862 29.0471 18.525 29.2305V18.5211C18.525 18.2625 18.6277 18.0145 18.8106 17.8317C18.9934 17.6488 19.2414 17.5461 19.5 17.5461C19.7586 17.5461 20.0066 17.6488 20.1894 17.8317C20.3723 18.0145 20.475 18.2625 20.475 18.5211V29.2305Z" fill="#099268"/>
</svg>
