<?xml version="1.0" standalone="no"?>
<!DOCTYPE svg PUBLIC "-//W3C//DTD SVG 20010904//EN"
 "http://www.w3.org/TR/2001/REC-SVG-20010904/DTD/svg10.dtd">
<svg version="1.0" xmlns="http://www.w3.org/2000/svg"
 width="1792.000000pt" height="1792.000000pt" viewBox="0 0 1792.000000 1792.000000"
 preserveAspectRatio="xMidYMid meet">
<metadata>
Created by potrace 1.14, written by Peter Selinger 2001-2017
</metadata>
<g transform="translate(0.000000,1792.000000) scale(0.100000,-0.100000)"
fill="#000000" stroke="none">
<path d="M2129 10816 c-2 -2 -25 -6 -51 -9 -64 -8 -173 -47 -255 -92 -59 -32
-165 -134 -805 -774 -661 -661 -739 -742 -764 -796 -34 -76 -37 -167 -6 -235
19 -44 82 -120 98 -120 4 0 16 -8 27 -17 10 -10 57 -34 102 -54 l84 -35 -120
-120 c-66 -65 -135 -141 -154 -169 -101 -150 -70 -316 80 -421 17 -12 87 -45
155 -74 69 -29 153 -66 188 -81 34 -16 65 -29 67 -29 2 0 28 -11 57 -24 29
-13 96 -42 148 -64 52 -22 113 -48 135 -58 22 -9 42 -18 45 -19 3 -1 23 -9 45
-19 22 -9 83 -35 135 -58 52 -22 113 -48 135 -59 22 -10 69 -30 105 -45 36
-14 83 -34 105 -44 22 -10 105 -46 185 -80 80 -34 165 -71 188 -82 95 -43 200
-82 257 -95 59 -15 216 -19 265 -8 14 3 41 8 60 11 58 10 184 62 249 104 40
26 299 278 784 763 773 773 767 767 782 880 11 82 -17 166 -77 229 -23 24
-115 88 -127 88 -12 0 -121 50 -121 56 0 2 51 55 113 117 144 146 158 162 186
222 17 36 24 68 25 115 0 99 -19 146 -87 211 -41 39 -168 108 -247 134 -3 1
-27 11 -53 23 -27 12 -50 22 -53 22 -2 0 -29 12 -61 26 -95 43 -106 47 -438
190 -176 75 -338 144 -360 154 -22 10 -85 37 -140 60 -55 24 -116 50 -135 58
-19 9 -37 16 -40 17 -9 3 -245 105 -335 145 -82 37 -152 52 -261 56 -61 2
-112 2 -115 0z m151 -206 c25 -6 50 -15 55 -19 6 -5 44 -22 85 -39 41 -17 101
-42 133 -56 31 -14 58 -26 60 -25 2 0 46 -19 172 -76 17 -7 59 -25 95 -40 36
-15 83 -35 105 -45 22 -10 69 -30 105 -45 36 -15 71 -32 78 -37 6 -6 12 -8 12
-5 0 3 39 -12 86 -33 47 -22 92 -40 100 -40 8 0 14 -4 14 -10 0 -5 6 -10 14
-10 8 0 65 -22 127 -50 62 -27 119 -50 126 -50 7 0 13 -4 13 -10 0 -5 6 -10
13 -10 8 0 27 -6 43 -14 16 -8 74 -33 129 -56 98 -41 132 -56 226 -99 40 -18
96 -68 100 -89 18 -93 3 -121 -139 -265 l-127 -128 -40 16 c-22 9 -53 22 -70
30 -55 24 -110 48 -115 50 -3 1 -21 8 -40 17 -188 83 -354 151 -356 146 0 -2
-7 2 -15 8 -8 7 -106 51 -219 99 -113 48 -225 96 -250 107 -183 81 -367 157
-410 168 -72 20 -225 22 -317 5 -88 -17 -188 -50 -214 -72 -8 -7 -20 -13 -25
-13 -29 0 -144 -108 -597 -559 -273 -273 -503 -497 -510 -499 -19 -4 -157 61
-184 87 -12 11 -28 39 -34 61 -25 83 -39 68 690 797 596 595 735 732 783 768
14 11 82 35 110 39 10 1 20 5 23 8 9 9 117 1 165 -12z m15 -805 c17 -7 122
-52 235 -100 113 -48 223 -95 245 -105 22 -10 85 -37 140 -60 55 -23 114 -48
130 -56 143 -64 591 -254 602 -254 7 0 13 -4 13 -10 0 -5 8 -10 18 -10 9 0 25
-6 34 -14 15 -11 -40 -69 -488 -516 -277 -277 -504 -501 -504 -496 0 4 -7 0
-15 -8 -9 -9 -39 -23 -68 -32 -114 -34 -212 -25 -340 34 -34 16 -87 39 -117
52 -83 35 -131 56 -170 73 -118 52 -173 75 -180 74 -3 -1 -18 7 -35 16 -27 15
-189 86 -325 142 -46 19 -245 105 -472 203 l-47 21 497 496 c273 274 516 508
539 521 81 48 233 62 308 29z m1748 -750 c123 -56 161 -127 118 -220 -13 -27
-243 -263 -727 -745 -390 -388 -720 -711 -734 -719 -55 -31 -140 -49 -214 -46
-59 3 -90 11 -150 39 -42 19 -76 33 -76 31 0 -2 -27 10 -60 26 -33 16 -63 29
-65 29 -3 0 -27 10 -53 21 -26 12 -60 27 -77 34 -61 26 -181 78 -225 97 -25
11 -58 26 -75 33 -99 41 -165 70 -200 85 -49 22 -114 49 -120 50 -2 1 -35 15
-72 31 -38 17 -81 36 -98 44 -16 7 -91 39 -165 70 -74 32 -153 66 -175 75 -22
10 -94 42 -160 70 -66 29 -132 60 -148 69 -37 21 -70 90 -63 134 7 45 16 67
27 67 5 0 9 4 9 9 0 5 54 63 121 129 l121 120 42 -18 c183 -80 609 -263 616
-265 3 0 21 -8 40 -17 19 -9 148 -64 285 -123 138 -58 268 -114 290 -124 84
-40 212 -89 250 -96 22 -5 47 -10 55 -12 24 -5 192 -4 225 2 119 22 237 68
321 125 25 18 271 257 545 531 275 275 503 499 508 499 5 0 43 -16 84 -35z"/>
<path d="M5097 10195 c-7 -23 -1 -2421 6 -2433 5 -7 13 -10 18 -6 10 6 110 7
144 1 11 -2 34 -1 52 4 20 4 33 3 33 -3 0 -5 5 -6 12 -2 11 7 103 8 143 1 11
-2 34 -1 52 4 20 4 33 3 33 -3 0 -5 5 -6 10 -3 11 7 109 8 145 2 11 -2 34 -1
52 4 20 4 33 3 33 -3 0 -5 5 -6 12 -2 11 7 103 8 143 1 11 -2 34 -1 52 4 20 4
33 3 33 -3 0 -5 5 -6 10 -3 6 4 35 6 65 5 80 -1 116 -1 150 1 l30 2 0 161 0
161 -413 0 c-226 -1 -412 2 -413 5 0 3 -1 480 -2 1060 l-2 1055 -197 0 c-130
1 -199 -3 -201 -10z"/>
<path d="M11507 10180 c-10 -4 -13 -59 -13 -240 l1 -235 -115 -5 -115 -5 0
-160 0 -160 80 -2 c44 -1 96 -2 115 -3 l35 0 1 -578 c0 -317 4 -600 7 -628 13
-93 73 -230 112 -256 5 -3 24 -18 40 -33 38 -33 135 -79 200 -95 28 -6 86 -13
130 -16 44 -2 82 -4 85 -5 3 -1 10 0 15 1 11 2 76 3 88 0 10 -2 115 -2 125 0
4 1 22 1 40 0 l32 -2 1 86 c0 47 0 106 0 131 0 25 0 62 0 83 l-1 37 -147 0
c-199 -1 -259 14 -298 79 -19 30 -20 56 -23 614 l-3 582 43 1 c24 0 130 0 236
0 l192 -1 0 165 0 165 -235 0 -235 0 0 240 0 240 -27 1 c-119 4 -356 3 -366
-1z"/>
<path d="M7220 9704 c-161 -41 -290 -114 -411 -233 -137 -136 -235 -326 -264
-511 -4 -25 -9 -54 -12 -65 -7 -32 -5 -313 2 -325 3 -6 8 -27 10 -48 7 -64 49
-207 67 -229 6 -7 8 -13 5 -13 -13 0 83 -162 133 -224 113 -142 315 -272 470
-302 14 -3 43 -9 65 -14 22 -5 103 -8 180 -6 146 4 231 21 333 68 80 36 205
124 260 182 29 31 54 56 55 56 1 0 2 -62 2 -137 l0 -137 25 -6 c14 -4 40 -3
58 1 18 4 32 3 32 -3 0 -5 5 -6 11 -3 12 8 89 12 89 5 0 -3 29 -5 65 -5 36 0
65 3 65 7 0 3 13 4 29 2 l29 -5 1 308 c1 169 1 317 1 328 0 11 0 49 0 85 0 36
1 72 1 80 0 8 0 188 0 400 0 212 -1 392 -1 400 0 8 0 44 0 80 0 36 0 72 0 80
0 8 0 52 -1 98 l0 82 -203 0 -202 0 -1 -122 c-2 -178 1 -167 -26 -130 -74 100
-250 210 -403 253 -122 34 -336 35 -464 3z m388 -329 c84 -10 242 -73 242 -97
0 -4 5 -8 11 -8 32 0 138 -129 181 -220 25 -53 62 -145 58 -145 -1 0 1 -25 5
-55 38 -320 -79 -581 -316 -709 -33 -17 -59 -29 -59 -26 0 3 -9 1 -21 -5 -22
-12 -45 -18 -99 -26 -313 -44 -587 159 -654 486 -16 81 -19 241 -5 311 15 80
17 86 40 140 79 188 248 323 443 353 22 4 41 8 43 9 3 4 59 0 131 -8z"/>
<path d="M9967 9719 c-166 -26 -357 -127 -469 -246 -34 -37 -47 -46 -50 -34
-2 9 -3 71 -2 139 l1 122 -131 1 c-72 1 -135 0 -141 -1 -5 -1 -36 -2 -67 -1
-49 1 -58 -1 -59 -16 -1 -10 -2 -654 -3 -1430 -1 -1124 2 -1413 12 -1414 16
-1 358 -1 375 0 11 1 14 104 14 569 1 312 2 581 2 598 l1 31 63 -62 c88 -88
169 -140 302 -195 96 -40 325 -65 421 -46 12 2 39 7 60 10 102 16 248 79 343
149 55 39 181 160 181 172 0 3 13 23 29 43 60 75 135 250 157 362 2 14 6 30 9
37 16 47 24 323 10 388 -3 17 -8 44 -10 60 -17 129 -79 281 -163 400 -89 126
-192 214 -329 280 -104 51 -106 52 -198 74 -85 20 -265 25 -358 10z m132 -343
c68 -6 171 -38 211 -66 14 -10 28 -17 31 -16 12 2 104 -77 134 -116 17 -21 35
-44 40 -51 26 -30 81 -158 90 -209 3 -13 8 -36 11 -52 13 -62 10 -194 -7 -281
-46 -242 -207 -429 -416 -484 -155 -41 -280 -28 -431 46 -47 23 -151 114 -192
168 -45 59 -94 171 -105 237 -3 18 -8 46 -11 61 -10 47 -6 199 6 267 13 75 52
178 89 235 36 56 140 157 192 186 82 46 133 63 219 75 25 3 47 8 48 9 2 2 9 2
15 0 7 -2 41 -6 76 -9z"/>
<path d="M13320 9710 c-204 -50 -399 -175 -508 -325 -20 -27 -40 -51 -44 -53
-5 -2 -8 -7 -8 -12 0 -4 -15 -34 -33 -67 -54 -96 -96 -231 -113 -367 -7 -62
-8 -246 0 -291 4 -22 9 -53 11 -70 21 -154 110 -355 206 -470 115 -137 280
-249 429 -289 115 -31 123 -32 230 -35 195 -4 331 31 499 130 39 22 72 50 140
117 36 34 65 62 65 62 1 0 1 -63 0 -141 0 -131 1 -140 18 -136 10 3 18 1 18
-5 0 -5 5 -6 10 -3 11 7 109 8 145 2 11 -2 34 -1 52 4 20 4 33 3 33 -3 0 -5 5
-6 12 -2 6 4 37 7 67 6 l56 -1 -5 90 c-3 50 -2 97 1 106 3 9 3 33 0 52 -3 20
-4 65 -1 101 3 36 2 80 -1 98 -4 18 -3 32 3 32 5 0 6 4 3 10 -3 5 -5 85 -5
177 1 93 1 177 1 188 -1 129 0 189 3 192 2 2 0 20 -4 39 -4 18 -4 34 1 34 4 0
6 6 4 13 -9 24 -12 77 -5 77 5 0 6 8 4 18 -7 30 -9 142 -2 142 3 0 4 8 2 18
-7 30 -9 142 -2 142 3 0 4 8 2 18 -8 34 -9 142 -1 142 5 0 5 4 2 10 -3 5 -6
61 -6 125 l-1 115 -202 0 -202 0 1 -135 c0 -74 -1 -135 -3 -135 -1 0 -26 23
-54 51 -97 96 -216 169 -338 208 -101 32 -116 34 -265 36 -108 2 -157 -1 -215
-15z m371 -334 c67 -8 166 -46 232 -90 133 -88 231 -248 263 -426 12 -69 5
-285 -11 -309 -2 -4 -6 -21 -9 -37 -10 -54 -84 -188 -136 -246 -107 -119 -260
-189 -415 -190 -49 -1 -146 12 -160 20 -5 4 -19 8 -30 9 -11 2 -24 8 -29 13
-6 6 -17 10 -26 10 -43 0 -177 116 -236 205 -58 88 -75 129 -101 245 -12 56
-11 271 2 320 7 28 12 50 9 50 -9 0 63 152 91 189 5 8 38 43 72 78 47 47 84
74 146 104 45 21 93 42 107 45 31 7 173 21 180 18 3 -1 26 -5 51 -8z"/>
<path d="M16068 9724 c-2 -1 -19 -6 -38 -9 -159 -26 -362 -139 -468 -259 -18
-20 -32 -33 -33 -29 0 4 -1 67 -2 138 l-2 130 -200 0 -199 0 -1 -1415 c0 -778
1 -1422 3 -1430 3 -13 32 -15 195 -13 106 1 195 2 198 2 3 1 6 268 7 594 1
325 1 594 2 595 0 2 33 -27 74 -65 123 -113 282 -197 418 -219 84 -14 303 -12
364 2 33 8 70 17 84 20 26 5 211 92 220 103 3 3 30 25 60 48 134 102 243 258
305 438 50 147 71 361 51 538 -44 406 -326 734 -702 816 -77 16 -324 28 -336
15z m118 -348 c193 -20 361 -140 448 -321 60 -123 68 -163 69 -325 0 -134 -17
-209 -71 -320 -70 -142 -171 -239 -307 -291 -99 -39 -179 -49 -280 -36 -140
18 -237 67 -335 167 -132 135 -182 278 -176 505 3 72 6 137 8 145 17 65 44
138 56 153 8 9 11 17 6 17 -5 0 -4 4 1 8 6 4 17 20 25 37 23 45 138 157 195
189 67 37 153 65 223 72 31 4 59 8 61 10 2 2 7 2 10 0 3 -2 34 -6 67 -10z"/>
</g>
</svg>
