<?xml version="1.0" standalone="no"?>
<!DOCTYPE svg PUBLIC "-//W3C//DTD SVG 20010904//EN"
 "http://www.w3.org/TR/2001/REC-SVG-20010904/DTD/svg10.dtd">
<svg version="1.0" xmlns="http://www.w3.org/2000/svg"
 width="330.000000pt" height="330.000000pt" viewBox="0 0 330.000000 330.000000"
 preserveAspectRatio="xMidYMid meet">
<metadata>
Created by potrace 1.14, written by Peter Selinger 2001-2017
</metadata>
<g transform="translate(0.000000,330.000000) scale(0.100000,-0.100000)"
fill="#000000" stroke="none">
<path d="M1485 2943 c-46 -13 -80 -44 -382 -346 -183 -181 -337 -343 -344
-358 -15 -37 -4 -91 24 -117 12 -11 41 -29 64 -40 l42 -18 -59 -59 c-32 -32
-64 -71 -71 -87 -16 -40 -3 -92 30 -120 15 -13 213 -104 438 -201 592 -255
516 -270 985 200 206 207 319 328 323 346 17 68 -21 130 -100 158 l-35 13 65
66 c87 90 97 143 37 198 -15 14 -214 105 -442 203 -455 196 -460 197 -575 162z
m517 -255 c218 -94 399 -177 402 -185 8 -20 -5 -41 -61 -95 l-48 -47 -325 140
c-356 152 -370 156 -481 123 -50 -15 -70 -32 -286 -247 l-232 -230 -41 18
c-39 18 -44 25 -41 55 2 8 140 153 309 323 307 307 335 331 387 319 11 -2 199
-81 417 -174z m-99 -280 l308 -132 -208 -209 c-200 -200 -243 -237 -278 -237
-17 0 -624 256 -637 269 -5 4 90 105 210 224 209 208 221 217 258 217 28 1
123 -36 347 -132z m450 -193 c20 -8 41 -24 48 -36 10 -20 -15 -48 -303 -335
-235 -237 -322 -317 -348 -325 -33 -10 -57 -2 -435 161 -220 95 -406 177 -412
182 -24 20 -13 50 39 104 l53 53 325 -140 325 -140 75 4 c51 2 88 10 115 25
22 11 139 120 260 241 121 122 220 221 221 221 1 0 18 -7 37 -15z"/>
<path d="M650 880 l0 -210 115 0 115 0 0 35 0 35 -70 0 -70 0 0 175 0 175 -45
0 -45 0 0 -210z"/>
<path d="M1750 1051 c0 -30 -4 -40 -20 -44 -28 -7 -29 -77 -1 -77 17 0 19 -10
23 -106 3 -102 4 -107 31 -130 22 -19 39 -24 83 -24 l55 0 -3 38 c-3 33 -6 37
-33 40 -16 2 -33 9 -37 15 -4 7 -8 47 -8 90 l0 77 40 0 40 0 0 40 0 40 -40 0
-40 0 0 40 0 40 -45 0 -45 0 0 -39z"/>
<path d="M980 987 c-50 -33 -73 -79 -74 -146 0 -103 53 -170 143 -179 37 -3
53 1 84 22 35 24 37 24 37 6 0 -17 7 -20 45 -20 l45 0 0 170 0 170 -45 0 c-38
0 -45 -3 -45 -20 0 -20 0 -20 -32 0 -46 28 -115 26 -158 -3z m155 -79 c46 -40
33 -138 -21 -158 -38 -15 -50 -12 -83 16 -26 21 -31 33 -31 68 0 83 76 124
135 74z"/>
<path d="M1337 1003 c-4 -3 -7 -116 -7 -250 l0 -243 45 0 45 0 0 95 0 95 37
-20 c108 -58 225 22 226 153 2 136 -114 217 -226 157 l-37 -20 0 20 c0 17 -7
20 -38 20 -21 0 -42 -3 -45 -7z m227 -99 c38 -38 36 -95 -3 -135 -33 -33 -50
-35 -91 -14 -40 21 -56 72 -36 118 25 62 85 76 130 31z"/>
<path d="M2036 987 c-54 -30 -80 -78 -81 -147 0 -101 55 -169 144 -177 32 -3
57 1 84 15 29 16 37 17 37 6 0 -10 12 -14 40 -14 l40 0 0 165 0 165 -40 0
c-28 0 -40 -4 -40 -14 0 -11 -8 -10 -37 5 -49 25 -99 24 -147 -4z m155 -76
c24 -24 29 -38 29 -76 0 -38 -5 -52 -29 -76 -48 -47 -116 -38 -146 21 -19 37
-19 73 0 110 30 59 98 68 146 21z"/>
<path d="M2498 992 c-30 -16 -38 -17 -38 -6 0 10 -12 14 -40 14 l-40 0 0 -245
0 -245 40 0 40 0 0 94 0 94 37 -19 c49 -25 99 -24 147 4 50 28 76 72 82 139 6
61 -22 128 -68 161 -39 29 -114 33 -160 9z m123 -81 c21 -22 29 -39 29 -66 0
-102 -94 -153 -161 -86 -24 24 -29 38 -29 76 0 95 96 140 161 76z"/>
</g>
</svg>
