<svg width="40" height="39" viewBox="0 0 40 39" fill="none" xmlns="http://www.w3.org/2000/svg">
<rect x="0.396454" width="39" height="39" rx="19.5" fill="#B1ECDB"/>
<path d="M10 9.27777V29.7221C10 30.061 10.12 30.386 10.3336 30.6256C10.5472 30.8652 10.8368 30.9998 11.1389 30.9998H29.3611C29.6632 30.9998 29.9528 30.8652 30.1664 30.6256C30.38 30.386 30.5 30.061 30.5 29.7221V9.27777C30.5 8.93888 30.38 8.61388 30.1664 8.37425C29.9528 8.13462 29.6632 8 29.3611 8H11.1389C10.8368 8 10.5472 8.13462 10.3336 8.37425C10.12 8.61388 10 8.93888 10 9.27777V9.27777Z" stroke="#099268" stroke-width="2" stroke-linecap="round" stroke-linejoin="round"/>
<path d="M21.9584 8L18.5417 11.8333L21.9584 15.6666L18.5417 19.4999L21.9584 23.3332L18.5417 27.1665L21.9584 30.9998" stroke="#099268" stroke-width="2" stroke-linecap="round" stroke-linejoin="round"/>
<path d="M16.8333 8H25.9444" stroke="#099268" stroke-width="2" stroke-linecap="round" stroke-linejoin="round"/>
<path d="M16.8333 31H25.9444" stroke="#099268" stroke-width="2" stroke-linecap="round" stroke-linejoin="round"/>
</svg>
