<svg width="35" height="35" viewBox="0 0 35 35" fill="none" xmlns="http://www.w3.org/2000/svg">
<path d="M16.4062 2.1875C8.56641 2.1875 2.1875 8.56641 2.1875 16.4062C2.1875 24.2461 8.56641 30.625 16.4062 30.625C24.2461 30.625 30.625 24.2461 30.625 16.4062C30.625 8.56641 24.2461 2.1875 16.4062 2.1875ZM16.4062 4.375C23.0639 4.375 28.4375 9.74862 28.4375 16.4062C28.4375 22.4576 23.9916 27.4335 18.1836 28.2922V19.884H21.5802L22.1143 16.4362H18.1836V14.5477C18.1836 13.1149 18.6499 11.8433 19.9908 11.8433H22.1442V8.83118C21.7657 8.78086 20.9663 8.66882 19.4525 8.66882C16.2938 8.66882 14.4409 10.3379 14.4409 14.1376V16.4319H11.1938V19.884H14.4452V28.2623C8.72766 27.3265 4.375 22.3936 4.375 16.4062C4.375 9.74862 9.74862 4.375 16.4062 4.375Z" fill="#0CA678"/>
</svg>
