<svg width="35" height="35" viewBox="0 0 35 35" fill="none" xmlns="http://www.w3.org/2000/svg">
<path d="M10.4419 2.1875C5.896 2.1875 2.1875 5.896 2.1875 10.4419V22.3792C2.1875 26.9165 5.896 30.625 10.4419 30.625H22.3792C26.9165 30.625 30.625 26.9165 30.625 22.3706V10.4419C30.625 5.896 26.9165 2.1875 22.3706 2.1875H10.4419ZM10.4419 4.375H22.3706C25.7373 4.375 28.4375 7.0752 28.4375 10.4419V22.3706C28.4375 25.7373 25.7373 28.4375 22.3792 28.4375H10.4419C7.0752 28.4375 4.375 25.7373 4.375 22.3792V10.4419C4.375 7.0752 7.0752 4.375 10.4419 4.375ZM25.1562 6.5625C24.5496 6.5625 24.0625 7.04956 24.0625 7.65625C24.0625 8.26294 24.5496 8.75 25.1562 8.75C25.7629 8.75 26.25 8.26294 26.25 7.65625C26.25 7.04956 25.7629 6.5625 25.1562 6.5625ZM16.4062 8.75C12.1936 8.75 8.75 12.1936 8.75 16.4062C8.75 20.6189 12.1936 24.0625 16.4062 24.0625C20.6189 24.0625 24.0625 20.6189 24.0625 16.4062C24.0625 12.1936 20.6189 8.75 16.4062 8.75ZM16.4062 10.9375C19.4397 10.9375 21.875 13.3728 21.875 16.4062C21.875 19.4397 19.4397 21.875 16.4062 21.875C13.3728 21.875 10.9375 19.4397 10.9375 16.4062C10.9375 13.3728 13.3728 10.9375 16.4062 10.9375Z" fill="#0CA678"/>
</svg>
